<?xml version="1.0" encoding="utf-8"?>
<!-- Generator: Adobe Illustrator 19.0.0, SVG Export Plug-In . SVG Version: 6.00 Build 0)  -->
<svg version="1.1" id="Layer_1" xmlns="http://www.w3.org/2000/svg" xmlns:xlink="http://www.w3.org/1999/xlink" x="0px" y="0px"
	 viewBox="0 0 96 96" style="enable-background:new 0 0 96 96;" xml:space="preserve">
<style type="text/css">
	.st0{fill:#CC0066;}
	.st1{fill:#FFFFFF;}
</style>
<circle id="XMLID_13_" class="st0" cx="48" cy="48" r="48"/>
<path id="XMLID_1_" class="st1" d="M0.2,72l14.3,18c0,0,11.9-1.4,12.4-2.5c0.5-1.1-2-15.7-3.1-16.8C22.8,69.6,0.2,72,0.2,72z"/>
<path id="XMLID_3_" class="st1" d="M28.5,82.8c0,0,0.5-0.9,2.5-1.4c2-0.5,14.7-1.2,18.4-2.2c3.7-1,13.4-9.4,13.8-10.9
	c0.4-1.5-0.7-3.1-3.6-0.9c-2.8,2.2-4.3,3.4-8.7,5.2s-11.5,0.5-11.5,0.5s-1.1-0.9-0.6-1.7c0.4-0.8,6.2-1.2,7.9-2.2s2-3.2-1.2-3
	c-3.2,0.2-8-0.2-11.7,0.8s-8,3.6-8,3.6L28.5,82.8z"/>
<g id="XMLID_4_">
	<path id="XMLID_12_" class="st1" d="M69.7,23.9h-1.4v8.7h1.4c0.8,0,1.4-0.6,1.4-1.4v-5.8C71.2,24.6,70.5,23.9,69.7,23.9z"/>
	<path id="XMLID_6_" class="st1" d="M56.7,12.4H39.3c-4.8,0-8.7,3.9-8.7,8.7v26.1c0,1.6,1.3,2.9,2.9,2.9v2.9c0,1.6,1.3,2.9,2.9,2.9
		h2.9c1.6,0,2.9-1.3,2.9-2.9V50h11.6v2.9c0,1.6,1.3,2.9,2.9,2.9h2.9c1.6,0,2.9-1.3,2.9-2.9V50c1.6,0,2.9-1.3,2.9-2.9V21
		C65.4,16.3,61.5,12.4,56.7,12.4z M42.2,15.3h11.6v2.9H42.2V15.3z M36.4,47.1c-1.6,0-2.9-1.3-2.9-2.9s1.3-2.9,2.9-2.9
		c1.6,0,2.9,1.3,2.9,2.9S38,47.1,36.4,47.1z M59.6,47.1c-1.6,0-2.9-1.3-2.9-2.9s1.3-2.9,2.9-2.9c1.6,0,2.9,1.3,2.9,2.9
		S61.2,47.1,59.6,47.1z M62.5,38.4h-29V21h29V38.4z"/>
	<path id="XMLID_5_" class="st1" d="M24.8,25.4v5.8c0,0.8,0.6,1.4,1.4,1.4h1.4v-8.7h-1.4C25.5,23.9,24.8,24.6,24.8,25.4z"/>
</g>
<path id="XMLID_15_" class="st1" d="M48.2,59h-30c0,0,0.7,4,3.7,4s26.3,0,26.3,0s22.7,0,26,0s3.7-4,3.7-4H48.2z"/>
</svg>
